<?xml version="1.0" standalone="no"?><!DOCTYPE svg PUBLIC "-//W3C//DTD SVG 1.1//EN" "http://www.w3.org/Graphics/SVG/1.1/DTD/svg11.dtd"><svg t="1591919321159" class="icon" viewBox="0 0 1024 1024" version="1.1" xmlns="http://www.w3.org/2000/svg" p-id="4254" xmlns:xlink="http://www.w3.org/1999/xlink" width="200" height="200"><defs><style type="text/css"></style></defs><path d="M130.792727 46.545455c-23.109818 0-44.171636 9.495273-59.508363 24.738909A84.014545 84.014545 0 0 0 46.545455 130.816V381.207273c0 23.109818 9.495273 44.171636 24.738909 59.508363A84.014545 84.014545 0 0 0 130.792727 465.454545h250.414546a84.014545 84.014545 0 0 0 59.438545-24.738909A84.061091 84.061091 0 0 0 465.454545 381.207273V130.792727c0-23.179636-9.472-44.241455-24.785454-59.461818A84.014545 84.014545 0 0 0 381.207273 46.545455H130.792727z m254.324364 338.501818a35.933091 35.933091 0 0 1-25.483636 10.589091H152.366545c-9.867636 0-18.897455-4.072727-25.483636-10.589091A35.863273 35.863273 0 0 1 116.363636 359.633455V152.389818c0-9.890909 4.049455-18.897455 10.589091-25.506909A35.886545 35.886545 0 0 1 152.366545 116.363636h207.26691c9.541818 0 18.711273 3.793455 25.413818 10.589091 6.516364 6.516364 10.589091 15.546182 10.589091 25.437091v207.243637c0 9.914182-4.049455 18.920727-10.519273 25.413818zM642.792727 46.545455c-23.109818 0-44.171636 9.495273-59.508363 24.738909A84.014545 84.014545 0 0 0 558.545455 130.816V381.207273c0 23.109818 9.495273 44.171636 24.738909 59.508363A84.014545 84.014545 0 0 0 642.792727 465.454545h250.414546a84.014545 84.014545 0 0 0 59.438545-24.738909A84.061091 84.061091 0 0 0 977.454545 381.207273V130.792727c0-23.179636-9.472-44.241455-24.785454-59.461818A84.014545 84.014545 0 0 0 893.207273 46.545455H642.792727z m254.324364 338.501818a35.933091 35.933091 0 0 1-25.483636 10.589091h-207.26691c-9.867636 0-18.897455-4.072727-25.483636-10.589091A35.863273 35.863273 0 0 1 628.363636 359.633455V152.389818c0-9.890909 4.049455-18.897455 10.589091-25.506909A35.886545 35.886545 0 0 1 664.366545 116.363636h207.26691c9.541818 0 18.711273 3.793455 25.413818 10.589091 6.516364 6.516364 10.589091 15.546182 10.589091 25.437091v207.243637c0 9.914182-4.049455 18.920727-10.519273 25.413818zM130.792727 558.545455c-23.109818 0-44.171636 9.495273-59.508363 24.738909A84.014545 84.014545 0 0 0 46.545455 642.816V893.207273c0 23.109818 9.495273 44.171636 24.738909 59.508363A84.014545 84.014545 0 0 0 130.792727 977.454545h250.414546a84.014545 84.014545 0 0 0 59.438545-24.738909A84.061091 84.061091 0 0 0 465.454545 893.207273V642.792727c0-23.179636-9.472-44.241455-24.785454-59.461818A84.014545 84.014545 0 0 0 381.207273 558.545455H130.792727z m254.324364 338.501818a35.933091 35.933091 0 0 1-25.483636 10.589091H152.366545c-9.867636 0-18.897455-4.072727-25.483636-10.589091A35.863273 35.863273 0 0 1 116.363636 871.633455v-207.243637c0-9.890909 4.049455-18.897455 10.589091-25.506909A35.886545 35.886545 0 0 1 152.366545 628.363636h207.26691c9.541818 0 18.711273 3.793455 25.413818 10.589091 6.516364 6.516364 10.589091 15.546182 10.589091 25.437091v207.243637c0 9.914182-4.049455 18.920727-10.519273 25.413818z m610.816 79.104a20.782545 20.782545 0 0 1-13.405091 6.912c-8.378182 2.187636-17.594182 1.210182-25.669818-3.467637l-59.112727-34.117818a34.769455 34.769455 0 0 1-0.861091-0.512 214.853818 214.853818 0 0 1-144.290909 55.528727 215.435636 215.435636 0 0 1-153.6-64.395636 220.136727 220.136727 0 0 1-63.627637-155.229091 220.16 220.16 0 0 1 63.627637-155.275636 215.714909 215.714909 0 0 1 153.6-64.325818 215.435636 215.435636 0 0 1 153.553454 64.372363 219.810909 219.810909 0 0 1 63.674182 155.229091c0 40.261818-10.705455 77.963636-29.44 110.405818l50.594909 29.207273a34.141091 34.141091 0 0 1 4.957091 55.668364z m-243.293091-40.727273a151.552 151.552 0 0 0 108.078545-45.242182 154.763636 154.763636 0 0 0 44.753455-109.242182 155.066182 155.066182 0 0 0-44.753455-109.312 151.389091 151.389091 0 0 0-108.078545-45.218909 151.645091 151.645091 0 0 0-108.101818 45.242182 155.136 155.136 0 0 0-44.730182 109.288727 154.996364 154.996364 0 0 0 44.730182 109.288728 151.645091 151.645091 0 0 0 108.101818 45.218909z" p-id="4255" fill="#8a8a8a"></path></svg>