<?xml version="1.0" standalone="no"?><!DOCTYPE svg PUBLIC "-//W3C//DTD SVG 1.1//EN" "http://www.w3.org/Graphics/SVG/1.1/DTD/svg11.dtd"><svg t="1591919153852" class="icon" viewBox="0 0 1024 1024" version="1.1" xmlns="http://www.w3.org/2000/svg" p-id="2412" xmlns:xlink="http://www.w3.org/1999/xlink" width="200" height="200"><defs><style type="text/css"></style></defs><path d="M548.8 193.6c80 0 145.6 65.6 145.6 145.6s-65.6 145.6-145.6 145.6-145.6-65.6-145.6-145.6 64-145.6 145.6-145.6m0-48c-107.2 0-193.6 86.4-193.6 193.6s86.4 193.6 193.6 193.6 193.6-86.4 193.6-193.6S654.4 145.6 548.8 145.6zM862.4 601.6H672c-12.8 0-24-11.2-24-24s11.2-24 24-24h190.4c12.8 0 24 11.2 24 24s-11.2 24-24 24zM862.4 697.6H624c-12.8 0-24-11.2-24-24s11.2-24 24-24h238.4c12.8 0 24 11.2 24 24s-11.2 24-24 24zM862.4 809.6H624c-12.8 0-24-11.2-24-24s11.2-24 24-24h238.4c12.8 0 24 11.2 24 24s-11.2 24-24 24z" fill="" p-id="2413"></path><path d="M238.4 825.6c-12.8 0-24-11.2-24-24 0-174.4 155.2-315.2 347.2-315.2 12.8 0 24 11.2 24 24s-11.2 24-24 24c-164.8 0-299.2 120-299.2 267.2 0 12.8-11.2 24-24 24z" fill="" p-id="2414"></path></svg>