<?xml version="1.0" standalone="no"?><!DOCTYPE svg PUBLIC "-//W3C//DTD SVG 1.1//EN" "http://www.w3.org/Graphics/SVG/1.1/DTD/svg11.dtd"><svg t="1591918991879" class="icon" viewBox="0 0 1024 1024" version="1.1" xmlns="http://www.w3.org/2000/svg" p-id="559" xmlns:xlink="http://www.w3.org/1999/xlink" width="200" height="200"><defs><style type="text/css"></style></defs><path d="M734.429867 631.159467l-430.592 0c-8.533333 0-15.906133-6.0416-17.5616-14.421333l-83.268267-416.2048-57.002667 0c-9.9328 0-18.005333-8.021333-18.005333-17.937067s8.072533-17.937067 18.005333-17.937067l71.7312 0c8.533333 0 15.906133 6.0416 17.595733 14.404267l83.234133 416.187733 397.9264 0L716.4928 344.081067 346.897067 344.081067c-9.898667 0-17.937067-8.0384-17.937067-17.937067 0-9.915733 8.0384-17.937067 17.937067-17.937067l387.5328 0c9.9328 0 17.9712 8.021333 17.9712 17.937067l0 287.061333C752.401067 623.138133 744.362667 631.159467 734.429867 631.159467z" p-id="560" fill="#d81e06"></path><path d="M379.204267 710.109867m-32.3072 0a1.893 1.893 0 1 0 64.6144 0 1.893 1.893 0 1 0-64.6144 0Z" p-id="561" fill="#d81e06"></path><path d="M637.559467 710.109867m-32.3072 0a1.893 1.893 0 1 0 64.6144 0 1.893 1.893 0 1 0-64.6144 0Z" p-id="562" fill="#d81e06"></path><path d="M734.429867 516.334933 375.6032 516.334933c-5.9392 0-10.734933-4.8128-10.734933-10.769067 0-5.9392 4.795733-10.752 10.734933-10.752l358.826667 0c5.973333 0 10.769067 4.8128 10.769067 10.752C745.198933 511.522133 740.4032 516.334933 734.429867 516.334933z" p-id="563" fill="#d81e06"></path></svg>